<svg xmlns="http://www.w3.org/2000/svg" xmlns:xlink="http://www.w3.org/1999/xlink" width="500" zoomAndPan="magnify" viewBox="0 0 375 374.999991" height="500" preserveAspectRatio="xMidYMid meet" version="1.0"><defs><g/></defs><g fill="#ff914d" fill-opacity="1"><g transform="translate(168.487186, 242.950809)"><g><path d="M 184.1875 -140.148438 L 185.082031 -141.339844 C 186.269531 -180.023438 158.894531 -208.289062 80.636719 -208.289062 L 30.351562 -208.289062 C 25.589844 -208.289062 23.804688 -205.3125 23.804688 -200.554688 L 23.804688 -7.738281 C 23.804688 -2.976562 25.589844 0 30.351562 0 L 95.8125 0 C 169.308594 0 196.089844 -18.152344 196.089844 -55.644531 C 196.089844 -87.480469 159.492188 -103.550781 117.832031 -103.550781 Z M 80.636719 -204.125 C 123.785156 -204.125 137.769531 -186.566406 137.769531 -156.8125 C 137.769531 -142.828125 128.84375 -103.847656 89.863281 -103.847656 L 77.664062 -103.847656 L 77.664062 -204.125 Z M 89.863281 -99.679688 C 122.890625 -99.679688 140.148438 -81.234375 140.148438 -51.476562 C 140.148438 -27.96875 122.890625 -4.164062 89.863281 -4.164062 L 77.664062 -4.164062 L 77.664062 -99.679688 Z M 89.863281 -99.679688 "/></g></g></g><g fill="#ff914d" fill-opacity="1"><g transform="translate(16.89191, 280.562502)"><g><path d="M 4.410156 -27.550781 C 3.777344 -27.550781 3.542969 -27.160156 3.542969 -26.527344 L 3.542969 -1.023438 C 3.542969 -0.394531 3.777344 0 4.410156 0 L 22.355469 0 C 22.90625 0 23.222656 -0.394531 23.457031 -1.023438 L 25.898438 -7.125 C 25.976562 -7.320312 26.054688 -7.519531 25.859375 -7.675781 L 25.386719 -8.03125 C 25.308594 -8.109375 25.230469 -8.109375 25.152344 -8.109375 C 25.03125 -8.109375 24.914062 -8.03125 24.757812 -7.949219 L 14.207031 -0.550781 L 10.273438 -0.550781 L 10.273438 -13.578125 L 21.097656 -13.382812 L 21.097656 -14.328125 L 10.273438 -14.128906 L 10.273438 -27 L 14.207031 -27 L 20.980469 -21.292969 C 21.53125 -20.859375 22.199219 -20.347656 22.75 -20.347656 L 22.984375 -20.347656 C 23.617188 -20.347656 23.851562 -20.742188 23.851562 -21.371094 L 23.851562 -26.527344 C 23.851562 -27.160156 23.617188 -27.550781 22.984375 -27.550781 Z M 4.410156 -27.550781 "/></g></g></g><g fill="#ff914d" fill-opacity="1"><g transform="translate(43.690332, 280.562502)"><g><path d="M 22.75 -6.179688 C 22.75 -6.808594 22.515625 -7.203125 21.882812 -7.203125 L 21.648438 -7.203125 C 21.097656 -7.203125 20.429688 -6.691406 19.875 -6.257812 L 13.105469 -0.550781 L 10.273438 -0.550781 L 10.273438 -26.527344 C 10.273438 -27.160156 10.035156 -27.550781 9.40625 -27.550781 L 4.410156 -27.550781 C 3.777344 -27.550781 3.542969 -27.160156 3.542969 -26.527344 L 3.542969 -1.023438 C 3.542969 -0.394531 3.777344 0 4.410156 0 L 21.882812 0 C 22.515625 0 22.75 -0.394531 22.75 -1.023438 Z M 22.75 -6.179688 "/></g></g></g><g fill="#ff914d" fill-opacity="1"><g transform="translate(67.222576, 280.562502)"><g/></g></g><g fill="#ff914d" fill-opacity="1"><g transform="translate(79.028049, 280.562502)"><g><path d="M 32 0 C 32.628906 0 32.867188 -0.394531 32.867188 -1.023438 L 32.867188 -26.527344 C 32.867188 -27.160156 32.628906 -27.550781 32 -27.550781 L 28.300781 -27.550781 C 27.589844 -27.550781 27.277344 -27.433594 27 -26.921875 L 19.167969 -12.753906 L 10.3125 -26.726562 C 9.957031 -27.316406 9.445312 -27.550781 8.855469 -27.550781 L 2.320312 -27.550781 C 1.96875 -27.550781 1.929688 -27.355469 1.929688 -27.117188 L 3.621094 -24.402344 L 3.621094 -1.023438 C 3.621094 -0.394531 3.855469 0 4.488281 0 L 9.367188 0 C 9.996094 0 10.234375 -0.394531 10.234375 -1.023438 C 10.234375 -1.769531 9.722656 -2.085938 9.289062 -2.636719 L 4.171875 -11.21875 L 4.171875 -23.496094 L 15.3125 -5.667969 L 15.941406 -5.667969 L 25.269531 -22.472656 L 25.269531 -1.023438 C 25.269531 -0.394531 25.503906 0 26.136719 0 Z M 32 0 "/></g></g></g><g fill="#ff914d" fill-opacity="1"><g transform="translate(115.428258, 280.562502)"><g><path d="M 7.28125 0 C 8.109375 0 8.382812 -0.433594 8.148438 -1.023438 L 5.234375 -7.519531 L 17.75 -7.519531 L 20.664062 -1.023438 C 20.941406 -0.433594 21.371094 0 22.082031 0 L 27.828125 0 C 28.457031 0 28.652344 -0.511719 28.457031 -1.023438 L 17.042969 -26.527344 C 16.808594 -27.078125 16.296875 -27.550781 15.625 -27.550781 L 13.226562 -27.550781 C 12.675781 -27.550781 12.121094 -27.078125 11.886719 -26.527344 L 0.472656 -1.023438 C 0.277344 -0.511719 0.472656 0 1.101562 0 Z M 17.515625 -8.070312 L 5 -8.070312 L 4.605469 -8.933594 L 10.863281 -22.984375 Z M 17.515625 -8.070312 "/></g></g></g><g fill="#ff914d" fill-opacity="1"><g transform="translate(144.351664, 280.562502)"><g><path d="M 2.28125 -27.550781 C 2.085938 -27.550781 1.929688 -27.433594 1.929688 -27.277344 L 1.929688 -27.199219 C 1.929688 -27.039062 1.96875 -26.84375 2.203125 -26.527344 L 3.621094 -24.679688 L 3.621094 -1.023438 C 3.621094 -0.394531 3.855469 0 4.488281 0 L 10.117188 0 C 10.3125 0 10.390625 -0.117188 10.390625 -0.277344 L 10.390625 -0.472656 C 10.390625 -0.746094 10.351562 -0.90625 10.117188 -1.257812 L 4.171875 -9.054688 L 4.171875 -23.929688 L 21.6875 -1.023438 C 22.238281 -0.355469 22.75 0 23.261719 0 L 24.757812 0 C 25.386719 0 25.625 -0.394531 25.625 -1.023438 L 25.625 -26.527344 C 25.625 -27.160156 25.386719 -27.550781 24.757812 -27.550781 L 20.269531 -27.550781 C 20.074219 -27.550781 19.996094 -27.433594 19.996094 -27.277344 L 19.996094 -27.078125 C 19.996094 -26.804688 19.996094 -26.605469 20.269531 -26.292969 L 25.074219 -19.996094 L 25.074219 -10.195312 L 24.992188 -10.195312 L 11.375 -26.726562 C 10.863281 -27.316406 10.507812 -27.550781 9.917969 -27.550781 Z M 2.28125 -27.550781 "/></g></g></g><g fill="#ff914d" fill-opacity="1"><g transform="translate(173.511186, 280.562502)"><g><path d="M 6.296875 -27.550781 C 5.667969 -27.550781 5.351562 -27.160156 5.433594 -26.527344 L 5.863281 -22.472656 C 5.902344 -22.042969 6.140625 -21.765625 6.375 -21.765625 C 6.496094 -21.765625 6.574219 -21.804688 6.691406 -21.882812 L 13.617188 -26.960938 L 16.648438 -26.960938 L 16.648438 -9.171875 C 16.648438 -2.164062 15.273438 -0.15625 12.242188 -0.15625 L 11.097656 -0.15625 L 4.878906 -10.824219 C 4.527344 -11.414062 4.132812 -11.847656 3.777344 -11.847656 L 3.699219 -11.847656 C 3.265625 -11.847656 3.148438 -11.570312 3.148438 -11.140625 L 3.148438 -1.179688 C 3.148438 -0.550781 3.386719 -0.234375 4.015625 -0.15625 L 11.097656 0.394531 L 12.242188 0.394531 C 20.585938 0.394531 24.050781 -2.636719 24.050781 -9.171875 L 24.050781 -26.527344 C 24.050781 -27.160156 23.8125 -27.550781 23.144531 -27.550781 Z M 6.296875 -27.550781 "/></g></g></g><g fill="#ff914d" fill-opacity="1"><g transform="translate(199.916091, 280.562502)"><g><path d="M 7.28125 0 C 8.109375 0 8.382812 -0.433594 8.148438 -1.023438 L 5.234375 -7.519531 L 17.75 -7.519531 L 20.664062 -1.023438 C 20.941406 -0.433594 21.371094 0 22.082031 0 L 27.828125 0 C 28.457031 0 28.652344 -0.511719 28.457031 -1.023438 L 17.042969 -26.527344 C 16.808594 -27.078125 16.296875 -27.550781 15.625 -27.550781 L 13.226562 -27.550781 C 12.675781 -27.550781 12.121094 -27.078125 11.886719 -26.527344 L 0.472656 -1.023438 C 0.277344 -0.511719 0.472656 0 1.101562 0 Z M 17.515625 -8.070312 L 5 -8.070312 L 4.605469 -8.933594 L 10.863281 -22.984375 Z M 17.515625 -8.070312 "/></g></g></g><g fill="#ffffff" fill-opacity="1"><g transform="translate(228.848927, 280.562502)"><g/></g></g><g fill="#000000" fill-opacity="1"><g transform="translate(240.661426, 280.562502)"><g><path d="M 24.363281 -18.539062 L 24.480469 -18.695312 C 24.640625 -23.8125 21.019531 -27.550781 10.667969 -27.550781 L 4.015625 -27.550781 C 3.386719 -27.550781 3.148438 -27.160156 3.148438 -26.527344 L 3.148438 -1.023438 C 3.148438 -0.394531 3.386719 0 4.015625 0 L 12.675781 0 C 22.394531 0 25.9375 -2.402344 25.9375 -7.359375 C 25.9375 -11.570312 21.097656 -13.699219 15.585938 -13.699219 Z M 10.667969 -27 C 16.375 -27 18.222656 -24.679688 18.222656 -20.742188 C 18.222656 -18.894531 17.042969 -13.738281 11.886719 -13.738281 L 10.273438 -13.738281 L 10.273438 -27 Z M 11.886719 -13.1875 C 16.253906 -13.1875 18.539062 -10.746094 18.539062 -6.808594 C 18.539062 -3.699219 16.253906 -0.550781 11.886719 -0.550781 L 10.273438 -0.550781 L 10.273438 -13.1875 Z M 11.886719 -13.1875 "/></g></g></g><g fill="#000000" fill-opacity="1"><g transform="translate(267.971422, 280.562502)"><g><path d="M 3.542969 -1.023438 C 3.542969 -0.394531 3.777344 0 4.410156 0 L 9.40625 0 C 10.035156 0 10.273438 -0.394531 10.273438 -1.023438 L 10.273438 -26.527344 C 10.273438 -27.160156 10.035156 -27.550781 9.40625 -27.550781 L 4.410156 -27.550781 C 3.777344 -27.550781 3.542969 -27.160156 3.542969 -26.527344 Z M 3.542969 -1.023438 "/></g></g></g><g fill="#000000" fill-opacity="1"><g transform="translate(281.783821, 280.562502)"><g><path d="M 22.75 -6.179688 C 22.75 -6.808594 22.515625 -7.203125 21.882812 -7.203125 L 21.648438 -7.203125 C 21.097656 -7.203125 20.429688 -6.691406 19.875 -6.257812 L 13.105469 -0.550781 L 10.273438 -0.550781 L 10.273438 -26.527344 C 10.273438 -27.160156 10.035156 -27.550781 9.40625 -27.550781 L 4.410156 -27.550781 C 3.777344 -27.550781 3.542969 -27.160156 3.542969 -26.527344 L 3.542969 -1.023438 C 3.542969 -0.394531 3.777344 0 4.410156 0 L 21.882812 0 C 22.515625 0 22.75 -0.394531 22.75 -1.023438 Z M 22.75 -6.179688 "/></g></g></g><g fill="#000000" fill-opacity="1"><g transform="translate(305.316066, 280.562502)"><g><path d="M 7.28125 0 C 8.109375 0 8.382812 -0.433594 8.148438 -1.023438 L 5.234375 -7.519531 L 17.75 -7.519531 L 20.664062 -1.023438 C 20.941406 -0.433594 21.371094 0 22.082031 0 L 27.828125 0 C 28.457031 0 28.652344 -0.511719 28.457031 -1.023438 L 17.042969 -26.527344 C 16.808594 -27.078125 16.296875 -27.550781 15.625 -27.550781 L 13.226562 -27.550781 C 12.675781 -27.550781 12.121094 -27.078125 11.886719 -26.527344 L 0.472656 -1.023438 C 0.277344 -0.511719 0.472656 0 1.101562 0 Z M 17.515625 -8.070312 L 5 -8.070312 L 4.605469 -8.933594 L 10.863281 -22.984375 Z M 17.515625 -8.070312 "/></g></g></g><g fill="#000000" fill-opacity="1"><g transform="translate(334.239473, 280.562502)"><g><path d="M 22.75 -6.179688 C 22.75 -6.808594 22.515625 -7.203125 21.882812 -7.203125 L 21.648438 -7.203125 C 21.097656 -7.203125 20.429688 -6.691406 19.875 -6.257812 L 13.105469 -0.550781 L 10.273438 -0.550781 L 10.273438 -26.527344 C 10.273438 -27.160156 10.035156 -27.550781 9.40625 -27.550781 L 4.410156 -27.550781 C 3.777344 -27.550781 3.542969 -27.160156 3.542969 -26.527344 L 3.542969 -1.023438 C 3.542969 -0.394531 3.777344 0 4.410156 0 L 21.882812 0 C 22.515625 0 22.75 -0.394531 22.75 -1.023438 Z M 22.75 -6.179688 "/></g></g></g><g fill="#000000" fill-opacity="1"><g transform="translate(0.0000045, 242.950809)"><g><path d="M 33.328125 -208.289062 C 28.566406 -208.289062 26.78125 -205.3125 26.78125 -200.554688 L 26.78125 -7.738281 C 26.78125 -2.976562 28.566406 0 33.328125 0 L 169.011719 0 C 173.179688 0 175.558594 -2.976562 177.34375 -7.738281 L 195.792969 -53.859375 C 196.386719 -55.34375 196.984375 -56.832031 195.496094 -58.023438 L 191.925781 -60.703125 C 191.328125 -61.296875 190.734375 -61.296875 190.140625 -61.296875 C 189.246094 -61.296875 188.355469 -60.703125 187.164062 -60.105469 L 107.417969 -4.164062 L 77.664062 -4.164062 L 77.664062 -102.65625 L 159.492188 -101.167969 L 159.492188 -108.3125 L 77.664062 -106.824219 L 77.664062 -204.125 L 107.417969 -204.125 L 158.597656 -160.976562 C 162.765625 -157.707031 167.820312 -153.835938 171.988281 -153.835938 L 173.773438 -153.835938 C 178.535156 -153.835938 180.320312 -156.8125 180.320312 -161.574219 L 180.320312 -200.554688 C 180.320312 -205.3125 178.535156 -208.289062 173.773438 -208.289062 Z M 33.328125 -208.289062 "/></g></g></g></svg>